<svg id="kity_svg_6" xmlns="http://www.w3.org/2000/svg" xmlns:xlink="http://www.w3.org/1999/xlink" version="1.1" width="2384" height="675" style="background: rgb(251, 251, 251); visibility: visible;" viewBox="0 0 2384 675"><defs id="kity_defs_7"><linearGradient id="kity_linearGradient_17" x1="0" y1="0" x2="0" y2="1"><stop id="kity_stop_18" offset="0" stop-color="rgb(255, 255, 255)"></stop><stop id="kity_stop_19" offset="1" stop-color="rgb(204, 204, 204)"></stop></linearGradient><marker id="kity_marker_2" orient="auto" refX="6" refY="0" viewBox="-7 -7 14 14" markerWidth="7" markerHeight="7" markerUnits="userSpaceOnUse"><path id="kity_path_3" fill="rgb(123, 115, 191)" stroke="none" d="M6,0A6,6,0,1,1,-6,0A6,6,0,1,1,6,0"></path></marker></defs><g id="kity_g_8"><g id="minder1" text-rendering="optimize-speed"><g id="minder_connect_group1"><path id="kity_path_31" fill="none" stroke="rgb(123, 115, 191)" stroke-width="1" d="M1168.5,271.5A65,159,0,0,1,1233.5,112.5"></path><path id="kity_path_87" fill="none" stroke="rgb(123, 115, 191)" stroke-width="1" d="M1168.5,271.5A65,56,0,0,1,1233.5,215.5"></path><path id="kity_path_95" fill="none" stroke="rgb(123, 115, 191)" stroke-width="1" d="M1349.5,215.5C1352.5,215.5,1352.5,162.5,1355.5,162.5L1669.5,162.5"></path><path id="kity_path_97" fill="none" stroke="rgb(123, 115, 191)" stroke-width="1" d="M1349.5,215.5C1352.5,215.5,1352.5,188.5,1355.5,188.5L1555.5,188.5"></path><path id="kity_path_99" fill="none" stroke="rgb(123, 115, 191)" stroke-width="1" d="M1349.5,215.5C1352.5,215.5,1352.5,214.5,1355.5,214.5L1493.5,214.5"></path><path id="kity_path_101" fill="none" stroke="rgb(123, 115, 191)" stroke-width="1" d="M1349.5,215.5C1352.5,215.5,1352.5,240.5,1355.5,240.5L1666.5,240.5"></path><path id="kity_path_103" fill="none" stroke="rgb(123, 115, 191)" stroke-width="1" d="M1349.5,215.5C1352.5,215.5,1352.5,266.5,1355.5,266.5L1417.5,266.5"></path><path id="kity_path_105" fill="none" stroke="rgb(123, 115, 191)" stroke-width="1" d="M1349.5,215.5C1352.5,215.5,1352.5,292.5,1355.5,292.5L1456.5,292.5"></path><path id="kity_path_143" fill="none" stroke="rgb(123, 115, 191)" stroke-width="1" d="M1168.5,271.5A65,160,0,0,0,1233.5,431.5"></path><path id="kity_path_338" fill="none" stroke="rgb(123, 115, 191)" stroke-width="1" d="M1399.5,431.5C1402.5,431.5,1402.5,326.5,1405.5,326.5L1516.5,326.5"></path><path id="kity_path_339" fill="none" stroke="rgb(123, 115, 191)" stroke-width="1" d="M1399.5,431.5C1402.5,431.5,1402.5,352.5,1405.5,352.5L1829.5,352.5"></path><path id="kity_path_340" fill="none" stroke="rgb(123, 115, 191)" stroke-width="1" d="M1399.5,431.5C1402.5,431.5,1402.5,378.5,1405.5,378.5L1502.5,378.5"></path><path id="kity_path_341" fill="none" stroke="rgb(123, 115, 191)" stroke-width="1" d="M1399.5,431.5C1402.5,431.5,1402.5,404.5,1405.5,404.5L1766.5,404.5"></path><path id="kity_path_342" fill="none" stroke="rgb(123, 115, 191)" stroke-width="1" d="M1399.5,431.5C1402.5,431.5,1402.5,430.5,1405.5,430.5L1616.5,430.5"></path><path id="kity_path_343" fill="none" stroke="rgb(123, 115, 191)" stroke-width="1" d="M1399.5,431.5C1402.5,431.5,1402.5,456.5,1405.5,456.5L2364.5,456.5"></path><path id="kity_path_344" fill="none" stroke="rgb(123, 115, 191)" stroke-width="1" d="M1399.5,431.5C1402.5,431.5,1402.5,482.5,1405.5,482.5L1505.5,482.5"></path><path id="kity_path_345" fill="none" stroke="rgb(123, 115, 191)" stroke-width="1" d="M1399.5,431.5C1402.5,431.5,1402.5,508.5,1405.5,508.5L2056.5,508.5"></path><path id="kity_path_346" fill="none" stroke="rgb(123, 115, 191)" stroke-width="1" d="M1399.5,431.5C1402.5,431.5,1402.5,534.5,1405.5,534.5L1509.5,534.5"></path><path id="kity_path_347" fill="none" stroke="rgb(123, 115, 191)" stroke-width="1" d="M1399.5,431.5C1402.5,431.5,1402.5,560.5,1405.5,560.5L1810.5,560.5"></path><path id="kity_path_349" fill="none" stroke="rgb(123, 115, 191)" stroke-width="1" d="M1168.5,271.5A65,203,0,0,0,1103.5,68.5"></path><path id="kity_path_357" fill="none" stroke="rgb(123, 115, 191)" stroke-width="1" d="M757.5,68.5C754.5,68.5,754.5,41.5,751.5,41.5L100.5,41.5"></path><path id="kity_path_359" fill="none" stroke="rgb(123, 115, 191)" stroke-width="1" d="M757.5,68.5C754.5,68.5,754.5,67.5,751.5,67.5L63.5,67.5"></path><path id="kity_path_361" fill="none" stroke="rgb(123, 115, 191)" stroke-width="1" d="M757.5,68.5C754.5,68.5,754.5,93.5,751.5,93.5L601.5,93.5"></path><path id="kity_path_363" fill="none" stroke="rgb(123, 115, 191)" stroke-width="1" d="M757.5,68.5C754.5,68.5,754.5,119.5,751.5,119.5L553.5,119.5"></path><path id="kity_path_389" fill="none" stroke="rgb(123, 115, 191)" stroke-width="1" d="M1168.5,271.5A65,65,0,0,0,1103.5,206.5"></path><path id="kity_path_397" fill="none" stroke="rgb(123, 115, 191)" stroke-width="1" d="M835.5,206.5C832.5,206.5,832.5,153.5,829.5,153.5L517.5,153.5"></path><path id="kity_path_399" fill="none" stroke="rgb(123, 115, 191)" stroke-width="1" d="M835.5,206.5C832.5,206.5,832.5,179.5,829.5,179.5L729.5,179.5"></path><path id="kity_path_401" fill="none" stroke="rgb(123, 115, 191)" stroke-width="1" d="M835.5,206.5C832.5,206.5,832.5,205.5,829.5,205.5L720.5,205.5"></path><path id="kity_path_403" fill="none" stroke="rgb(123, 115, 191)" stroke-width="1" d="M835.5,206.5C832.5,206.5,832.5,231.5,829.5,231.5L564.5,231.5"></path><path id="kity_path_405" fill="none" stroke="rgb(123, 115, 191)" stroke-width="1" d="M835.5,206.5C832.5,206.5,832.5,257.5,829.5,257.5L767.5,257.5"></path><path id="kity_path_407" fill="none" stroke="rgb(123, 115, 191)" stroke-width="1" d="M835.5,206.5C832.5,206.5,832.5,283.5,829.5,283.5L728.5,283.5"></path><path id="kity_path_445" fill="none" stroke="rgb(123, 115, 191)" stroke-width="1" d="M1168.5,271.5A65,203,0,0,1,1103.5,474.5"></path><path id="kity_path_453" fill="none" stroke="rgb(123, 115, 191)" stroke-width="1" d="M1029.5,474.5C1026.5,474.5,1026.5,317.5,1023.5,317.5L665.5,317.5"></path><path id="kity_path_455" fill="none" stroke="rgb(123, 115, 191)" stroke-width="1" d="M1029.5,474.5C1026.5,474.5,1026.5,343.5,1023.5,343.5L877.5,343.5"></path><path id="kity_path_457" fill="none" stroke="rgb(123, 115, 191)" stroke-width="1" d="M1029.5,474.5C1026.5,474.5,1026.5,369.5,1023.5,369.5L835.5,369.5"></path><path id="kity_path_459" fill="none" stroke="rgb(123, 115, 191)" stroke-width="1" d="M1029.5,474.5C1026.5,474.5,1026.5,395.5,1023.5,395.5L781.5,395.5"></path><path id="kity_path_461" fill="none" stroke="rgb(123, 115, 191)" stroke-width="1" d="M1029.5,474.5C1026.5,474.5,1026.5,421.5,1023.5,421.5L846.5,421.5"></path><path id="kity_path_463" fill="none" stroke="rgb(123, 115, 191)" stroke-width="1" d="M1029.5,474.5C1026.5,474.5,1026.5,447.5,1023.5,447.5L723.5,447.5"></path><path id="kity_path_465" fill="none" stroke="rgb(123, 115, 191)" stroke-width="1" d="M1029.5,474.5C1026.5,474.5,1026.5,473.5,1023.5,473.5L872.5,473.5"></path><path id="kity_path_467" fill="none" stroke="rgb(123, 115, 191)" stroke-width="1" d="M1029.5,474.5C1026.5,474.5,1026.5,499.5,1023.5,499.5L656.5,499.5"></path><path id="kity_path_469" fill="none" stroke="rgb(123, 115, 191)" stroke-width="1" d="M1029.5,474.5C1026.5,474.5,1026.5,525.5,1023.5,525.5L93.5,525.5"></path><path id="kity_path_471" fill="none" stroke="rgb(123, 115, 191)" stroke-width="1" d="M1029.5,474.5C1026.5,474.5,1026.5,551.5,1023.5,551.5L828.5,551.5"></path><path id="kity_path_473" fill="none" stroke="rgb(123, 115, 191)" stroke-width="1" d="M1029.5,474.5C1026.5,474.5,1026.5,577.5,1023.5,577.5L20.5,577.5"></path><path id="kity_path_475" fill="none" stroke="rgb(123, 115, 191)" stroke-width="1" d="M1029.5,474.5C1026.5,474.5,1026.5,603.5,1023.5,603.5L492.5,603.5"></path><path id="kity_path_477" fill="none" stroke="rgb(123, 115, 191)" stroke-width="1" d="M1029.5,474.5C1026.5,474.5,1026.5,629.5,1023.5,629.5L443.5,629.5"></path><path id="kity_path_479" fill="none" stroke="rgb(123, 115, 191)" stroke-width="1" d="M1029.5,474.5C1026.5,474.5,1026.5,655.5,1023.5,655.5L426.5,655.5"></path></g><g id="minder_node1"><path id="node_outline1" fill="rgb(123, 115, 191)" stroke="rgb(61, 57, 96)" d="M1124.5,257.5h88a5,5,0,0,1,5,5v18a5,5,0,0,1,-5,5h-88a5,5,0,0,1,-5,-5v-18a5,5,0,0,1,5,-5z" stroke-width="3"></path><g id="node_text1" fill="white"><text id="kity_text_22" text-rendering="inherit" font-size="16" dy=".8em" y="261.09999990463257" x="1131.5">GoAccess</text></g></g><g id="kity_g_14" display="none"><path id="kity_path_15" fill="rgba(15, 0, 153, 0.5)" stroke="none" d="M1235.5,194.5h239v8h-239z"></path><path id="kity_path_16" fill="none" stroke="rgb(13, 0, 128)" d="M1235.5,202.5L1474.5,202.5" stroke-width="1"></path></g><g id="minder_node2"><g id="node_expander1" style="cursor: pointer;" display="none"><path id="kity_path_36" fill="white" stroke="gray" d="M1234.5,112.5A6,6,0,1,1,1222.5,112.5A6,6,0,1,1,1234.5,112.5"></path><path id="kity_path_37" fill="none" stroke="gray"></path></g><path id="node_outline2" fill="rgb(239, 238, 246)" stroke="rgb(123, 115, 191)" d="M1238.5,99.5h233a3,3,0,0,1,3,3v20a3,3,0,0,1,-3,3h-233a3,3,0,0,1,-3,-3v-20a3,3,0,0,1,3,-3z" stroke-width="1"></path><g id="node_text2" fill="black"><text id="kity_text_33" text-rendering="inherit" font-size="14" dy=".8em" y="103.40000009536743" x="1255.5">https://goaccess.io/download</text></g></g><g id="minder_node9"><g id="node_expander8" style="cursor: pointer;"><path id="kity_path_92" fill="white" stroke="gray" d="M1234.5,215.5A6,6,0,1,1,1222.5,215.5A6,6,0,1,1,1234.5,215.5"></path><path id="kity_path_93" fill="none" stroke="gray" d="M1224,215.5L1233,215.5"></path></g><path id="node_outline9" fill="rgb(239, 238, 246)" stroke="rgb(123, 115, 191)" d="M1238.5,202.5h108a3,3,0,0,1,3,3v20a3,3,0,0,1,-3,3h-108a3,3,0,0,1,-3,-3v-20a3,3,0,0,1,3,-3z" stroke-width="1"></path><g id="node_text9" fill="black"><text id="kity_text_89" text-rendering="inherit" font-size="14" dy=".8em" y="206.40000009536743" x="1255.5">Installation</text></g></g><g id="minder_node10"><g id="node_expander9" style="cursor: pointer;" display="none"><path id="kity_path_125" fill="white" stroke="gray" d="M1365.5,150.5A6,6,0,1,1,1353.5,150.5A6,6,0,1,1,1365.5,150.5"></path><path id="kity_path_126" fill="none" stroke="gray"></path></g><path id="node_outline10" fill="none" stroke="none" d="M1370.5,141.5h294a5,5,0,0,1,5,5v8a5,5,0,0,1,-5,5h-294a5,5,0,0,1,-5,-5v-8a5,5,0,0,1,5,-5z"></path><g id="node_text10" fill="black"><text id="kity_text_107" text-rendering="inherit" font-size="12" dy=".8em" y="142.70000004768372" x="1370.5">$ wget https://tar.goaccess.io/goaccess-1.4.3.tar.gz</text></g></g><g id="minder_node11"><g id="node_expander10" style="cursor: pointer;" display="none"><path id="kity_path_128" fill="white" stroke="gray" d="M1365.5,176.5A6,6,0,1,1,1353.5,176.5A6,6,0,1,1,1365.5,176.5"></path><path id="kity_path_129" fill="none" stroke="gray"></path></g><path id="node_outline11" fill="none" stroke="none" d="M1370.5,167.5h180a5,5,0,0,1,5,5v8a5,5,0,0,1,-5,5h-180a5,5,0,0,1,-5,-5v-8a5,5,0,0,1,5,-5z"></path><g id="node_text11" fill="black"><text id="kity_text_109" text-rendering="inherit" font-size="12" dy=".8em" y="168.70000004768372" x="1370.5">$ tar -xzvf goaccess-1.4.3.tar.gz</text></g></g><g id="minder_node12"><g id="node_expander11" style="cursor: pointer;" display="none"><path id="kity_path_131" fill="white" stroke="gray" d="M1365.5,202.5A6,6,0,1,1,1353.5,202.5A6,6,0,1,1,1365.5,202.5"></path><path id="kity_path_132" fill="none" stroke="gray"></path></g><path id="node_outline12" fill="none" stroke="none" d="M1370.5,193.5h118a5,5,0,0,1,5,5v8a5,5,0,0,1,-5,5h-118a5,5,0,0,1,-5,-5v-8a5,5,0,0,1,5,-5z"></path><g id="node_text12" fill="black"><text id="kity_text_111" text-rendering="inherit" font-size="12" dy=".8em" y="194.70000004768372" x="1370.5">$ cd goaccess-1.4.3/</text></g></g><g id="minder_node13"><g id="node_expander12" style="cursor: pointer;" display="none"><path id="kity_path_134" fill="white" stroke="gray" d="M1365.5,228.5A6,6,0,1,1,1353.5,228.5A6,6,0,1,1,1365.5,228.5"></path><path id="kity_path_135" fill="none" stroke="gray"></path></g><path id="node_outline13" fill="none" stroke="none" d="M1370.5,219.5h291a5,5,0,0,1,5,5v8a5,5,0,0,1,-5,5h-291a5,5,0,0,1,-5,-5v-8a5,5,0,0,1,5,-5z"></path><g id="node_text13" fill="black"><text id="kity_text_113" text-rendering="inherit" font-size="12" dy=".8em" y="220.70000004768372" x="1370.5">$ ./configure --enable-utf8 --enable-geoip=legacy</text></g></g><g id="minder_node14"><g id="node_expander13" style="cursor: pointer;" display="none"><path id="kity_path_137" fill="white" stroke="gray" d="M1365.5,254.5A6,6,0,1,1,1353.5,254.5A6,6,0,1,1,1365.5,254.5"></path><path id="kity_path_138" fill="none" stroke="gray"></path></g><path id="node_outline14" fill="none" stroke="none" d="M1370.5,245.5h42a5,5,0,0,1,5,5v8a5,5,0,0,1,-5,5h-42a5,5,0,0,1,-5,-5v-8a5,5,0,0,1,5,-5z"></path><g id="node_text14" fill="black"><text id="kity_text_115" text-rendering="inherit" font-size="12" dy=".8em" y="246.70000004768372" x="1370.5">$ make</text></g></g><g id="minder_node15"><g id="node_expander14" style="cursor: pointer;" display="none"><path id="kity_path_140" fill="white" stroke="gray" d="M1365.5,280.5A6,6,0,1,1,1353.5,280.5A6,6,0,1,1,1365.5,280.5"></path><path id="kity_path_141" fill="none" stroke="gray"></path></g><path id="node_outline15" fill="none" stroke="none" d="M1370.5,271.5h81a5,5,0,0,1,5,5v8a5,5,0,0,1,-5,5h-81a5,5,0,0,1,-5,-5v-8a5,5,0,0,1,5,-5z"></path><g id="node_text15" fill="black"><text id="kity_text_117" text-rendering="inherit" font-size="12" dy=".8em" y="272.7000000476837" x="1370.5"># make install</text></g></g><g id="minder_node16" opacity="1"><g id="node_expander15" style="cursor: pointer;"><path id="kity_path_148" fill="white" stroke="gray" d="M1234.5,431.5A6,6,0,1,1,1222.5,431.5A6,6,0,1,1,1234.5,431.5"></path><path id="kity_path_149" fill="none" stroke="gray" d="M1224,431.5L1233,431.5"></path></g><path id="node_outline16" fill="rgb(239, 238, 246)" stroke="rgb(123, 115, 191)" d="M1238.5,418.5h158a3,3,0,0,1,3,3v20a3,3,0,0,1,-3,3h-158a3,3,0,0,1,-3,-3v-20a3,3,0,0,1,3,-3z" stroke-width="1"></path><g id="node_text16" fill="black"><text id="kity_text_145" text-rendering="inherit" font-size="14" dy=".8em" y="422.40000009536743" x="1255.5">Configure Options</text></g></g><g id="kity_g_12" display="none"><path id="kity_path_13" fill="none" stroke="rgb(71, 66, 112)" d="M1238.5,207.5h233a3,3,0,0,1,3,3v20a3,3,0,0,1,-3,3h-233a3,3,0,0,1,-3,-3v-20a3,3,0,0,1,3,-3z" stroke-width="5"></path></g><g id="minder_node28"><g id="node_expander27" style="cursor: pointer;" display="none"><path id="kity_path_289" fill="white" stroke="gray" d="M1415.5,314.5A6,6,0,1,1,1403.5,314.5A6,6,0,1,1,1415.5,314.5"></path><path id="kity_path_290" fill="none" stroke="gray"></path></g><path id="node_outline28" fill="none" stroke="none" d="M1420.5,305.5h91a5,5,0,0,1,5,5v8a5,5,0,0,1,-5,5h-91a5,5,0,0,1,-5,-5v-8a5,5,0,0,1,5,-5z"></path><g id="node_text28" fill="black"><text id="kity_text_259" text-rendering="inherit" font-size="12" dy=".8em" y="306.7000000476837" x="1420.5">--enable-debug</text></g></g><g id="minder_node29"><g id="node_expander28" style="cursor: pointer;" display="none"><path id="kity_path_292" fill="white" stroke="gray" d="M1415.5,340.5A6,6,0,1,1,1403.5,340.5A6,6,0,1,1,1415.5,340.5"></path><path id="kity_path_293" fill="none" stroke="gray"></path></g><path id="node_outline29" fill="none" stroke="none" d="M1420.5,331.5h404a5,5,0,0,1,5,5v8a5,5,0,0,1,-5,5h-404a5,5,0,0,1,-5,-5v-8a5,5,0,0,1,5,-5z"></path><g id="node_text29" fill="black"><text id="kity_text_261" text-rendering="inherit" font-size="12" dy=".8em" y="332.7000000476837" x="1420.5">Compile with debugging symbols and turn off compiler optimizations.</text></g></g><g id="minder_node30"><g id="node_expander29" style="cursor: pointer;" display="none"><path id="kity_path_295" fill="white" stroke="gray" d="M1415.5,366.5A6,6,0,1,1,1403.5,366.5A6,6,0,1,1,1415.5,366.5"></path><path id="kity_path_296" fill="none" stroke="gray"></path></g><path id="node_outline30" fill="none" stroke="none" d="M1420.5,357.5h77a5,5,0,0,1,5,5v8a5,5,0,0,1,-5,5h-77a5,5,0,0,1,-5,-5v-8a5,5,0,0,1,5,-5z"></path><g id="node_text30" fill="black"><text id="kity_text_263" text-rendering="inherit" font-size="12" dy=".8em" y="358.7000000476837" x="1420.5">--enable-utf8</text></g></g><g id="minder_node31"><g id="node_expander30" style="cursor: pointer;" display="none"><path id="kity_path_298" fill="white" stroke="gray" d="M1415.5,392.5A6,6,0,1,1,1403.5,392.5A6,6,0,1,1,1415.5,392.5"></path><path id="kity_path_299" fill="none" stroke="gray"></path></g><path id="node_outline31" fill="none" stroke="none" d="M1420.5,383.5h341a5,5,0,0,1,5,5v8a5,5,0,0,1,-5,5h-341a5,5,0,0,1,-5,-5v-8a5,5,0,0,1,5,-5z"></path><g id="node_text31" fill="black"><text id="kity_text_265" text-rendering="inherit" font-size="12" dy=".8em" y="384.7000000476837" x="1420.5">Compile with wide character support. Ncursesw is required.</text></g></g><g id="minder_node32"><g id="node_expander31" style="cursor: pointer;" display="none"><path id="kity_path_301" fill="white" stroke="gray" d="M1415.5,418.5A6,6,0,1,1,1403.5,418.5A6,6,0,1,1,1415.5,418.5"></path><path id="kity_path_302" fill="none" stroke="gray"></path></g><path id="node_outline32" fill="none" stroke="none" d="M1420.5,409.5h191a5,5,0,0,1,5,5v8a5,5,0,0,1,-5,5h-191a5,5,0,0,1,-5,-5v-8a5,5,0,0,1,5,-5z"></path><g id="node_text32" fill="black"><text id="kity_text_267" text-rendering="inherit" font-size="12" dy=".8em" y="410.7000000476837" x="1420.5">--enable-geoip=&lt;legacy|mmdb&gt;</text></g></g><g id="minder_node33"><g id="node_expander32" style="cursor: pointer;" display="none"><path id="kity_path_304" fill="white" stroke="gray" d="M1415.5,444.5A6,6,0,1,1,1403.5,444.5A6,6,0,1,1,1415.5,444.5"></path><path id="kity_path_305" fill="none" stroke="gray"></path></g><path id="node_outline33" fill="none" stroke="none" d="M1420.5,435.5h939a5,5,0,0,1,5,5v8a5,5,0,0,1,-5,5h-939a5,5,0,0,1,-5,-5v-8a5,5,0,0,1,5,-5z"></path><g id="node_text33" fill="black"><text id="kity_text_269" text-rendering="inherit" font-size="12" dy=".8em" y="436.7000000476837" x="1420.5">Compile with GeoLocation support. MaxMind's GeoIP is required. legacy will utilize the original GeoIP databases. mmdb will utilize the enhanced GeoIP2 databases.</text></g></g><g id="minder_node34"><g id="node_expander33" style="cursor: pointer;" display="none"><path id="kity_path_307" fill="white" stroke="gray" d="M1415.5,470.5A6,6,0,1,1,1403.5,470.5A6,6,0,1,1,1415.5,470.5"></path><path id="kity_path_308" fill="none" stroke="gray"></path></g><path id="node_outline34" fill="none" stroke="none" d="M1420.5,461.5h80a5,5,0,0,1,5,5v8a5,5,0,0,1,-5,5h-80a5,5,0,0,1,-5,-5v-8a5,5,0,0,1,5,-5z"></path><g id="node_text34" fill="black"><text id="kity_text_271" text-rendering="inherit" font-size="12" dy=".8em" y="462.7000000476837" x="1420.5">--with-getline</text></g></g><g id="minder_node35"><g id="node_expander34" style="cursor: pointer;" display="none"><path id="kity_path_310" fill="white" stroke="gray" d="M1415.5,496.5A6,6,0,1,1,1403.5,496.5A6,6,0,1,1,1415.5,496.5"></path><path id="kity_path_311" fill="none" stroke="gray"></path></g><path id="node_outline35" fill="none" stroke="none" d="M1420.5,487.5h631a5,5,0,0,1,5,5v8a5,5,0,0,1,-5,5h-631a5,5,0,0,1,-5,-5v-8a5,5,0,0,1,5,-5z"></path><g id="node_text35" fill="black"><text id="kity_text_273" text-rendering="inherit" font-size="12" dy=".8em" y="488.7000000476837" x="1420.5">Dynamically expands line buffer in order to parse full line requests instead of using a fixed size buffer of 4096.</text></g></g><g id="minder_node36"><g id="node_expander35" style="cursor: pointer;" display="none"><path id="kity_path_313" fill="white" stroke="gray" d="M1415.5,522.5A6,6,0,1,1,1403.5,522.5A6,6,0,1,1,1415.5,522.5"></path><path id="kity_path_314" fill="none" stroke="gray"></path></g><path id="node_outline36" fill="none" stroke="none" d="M1420.5,513.5h84a5,5,0,0,1,5,5v8a5,5,0,0,1,-5,5h-84a5,5,0,0,1,-5,-5v-8a5,5,0,0,1,5,-5z"></path><g id="node_text36" fill="black"><text id="kity_text_275" text-rendering="inherit" font-size="12" dy=".8em" y="514.7000000476837" x="1420.5">--with-openssl</text></g></g><g id="minder_node37"><g id="node_expander36" style="cursor: pointer;" display="none"><path id="kity_path_316" fill="white" stroke="gray" d="M1415.5,548.5A6,6,0,1,1,1403.5,548.5A6,6,0,1,1,1415.5,548.5"></path><path id="kity_path_317" fill="none" stroke="gray"></path></g><path id="node_outline37" fill="none" stroke="none" d="M1420.5,539.5h385a5,5,0,0,1,5,5v8a5,5,0,0,1,-5,5h-385a5,5,0,0,1,-5,-5v-8a5,5,0,0,1,5,-5z"></path><g id="node_text37" fill="black"><text id="kity_text_277" text-rendering="inherit" font-size="12" dy=".8em" y="540.7000000476837" x="1420.5">Compile GoAccess with OpenSSL support for its WebSocket server.</text></g></g><g id="minder_node38"><g id="node_expander37" style="cursor: pointer;"><path id="kity_path_354" fill="white" stroke="gray" d="M1114.5,68.5A6,6,0,1,1,1102.5,68.5A6,6,0,1,1,1114.5,68.5"></path><path id="kity_path_355" fill="none" stroke="gray" d="M1104,68.5L1113,68.5"></path></g><path id="node_outline38" fill="rgb(239, 238, 246)" stroke="rgb(123, 115, 191)" d="M760.5,55.5h338a3,3,0,0,1,3,3v20a3,3,0,0,1,-3,3h-338a3,3,0,0,1,-3,-3v-20a3,3,0,0,1,3,-3z" stroke-width="1"></path><g id="node_text38" fill="black"><text id="kity_text_351" text-rendering="inherit" font-size="14" dy=".8em" y="59.40000009536743" x="777.5">Official GoAccess' Debian/Ubuntu Repository</text></g></g><g id="minder_node39"><g id="node_expander38" style="cursor: pointer;" display="none"><path id="kity_path_377" fill="white" stroke="gray" d="M753.5,29.5A6,6,0,1,1,741.5,29.5A6,6,0,1,1,753.5,29.5"></path><path id="kity_path_378" fill="none" stroke="gray"></path></g><path id="node_outline39" fill="none" stroke="none" d="M105.5,20.5h631a5,5,0,0,1,5,5v8a5,5,0,0,1,-5,5h-631a5,5,0,0,1,-5,-5v-8a5,5,0,0,1,5,-5z"></path><g id="node_text39" fill="black"><text id="kity_text_365" text-rendering="inherit" font-size="12" dy=".8em" y="21.700000047683716" x="105.5">$ echo "deb https://deb.goaccess.io/ $(lsb_release -cs) main" | sudo tee -a /etc/apt/sources.list.d/goaccess.list</text></g></g><g id="minder_node40"><g id="node_expander39" style="cursor: pointer;" display="none"><path id="kity_path_380" fill="white" stroke="gray" d="M753.5,55.5A6,6,0,1,1,741.5,55.5A6,6,0,1,1,753.5,55.5"></path><path id="kity_path_381" fill="none" stroke="gray"></path></g><path id="node_outline40" fill="none" stroke="none" d="M68.5,46.5h668a5,5,0,0,1,5,5v8a5,5,0,0,1,-5,5h-668a5,5,0,0,1,-5,-5v-8a5,5,0,0,1,5,-5z"></path><g id="node_text40" fill="black"><text id="kity_text_367" text-rendering="inherit" font-size="12" dy=".8em" y="47.700000047683716" x="68.5">$ wget -O - https://deb.goaccess.io/gnugpg.key | sudo apt-key --keyring /etc/apt/trusted.gpg.d/goaccess.gpg add -</text></g></g><g id="minder_node41"><g id="node_expander40" style="cursor: pointer;" display="none"><path id="kity_path_383" fill="white" stroke="gray" d="M753.5,81.5A6,6,0,1,1,741.5,81.5A6,6,0,1,1,753.5,81.5"></path><path id="kity_path_384" fill="none" stroke="gray"></path></g><path id="node_outline41" fill="none" stroke="none" d="M606.5,72.5h130a5,5,0,0,1,5,5v8a5,5,0,0,1,-5,5h-130a5,5,0,0,1,-5,-5v-8a5,5,0,0,1,5,-5z"></path><g id="node_text41" fill="black"><text id="kity_text_369" text-rendering="inherit" font-size="12" dy=".8em" y="73.70000004768372" x="606.5">$ sudo apt-get update</text></g></g><g id="minder_node42"><g id="node_expander41" style="cursor: pointer;" display="none"><path id="kity_path_386" fill="white" stroke="gray" d="M753.5,107.5A6,6,0,1,1,741.5,107.5A6,6,0,1,1,753.5,107.5"></path><path id="kity_path_387" fill="none" stroke="gray"></path></g><path id="node_outline42" fill="none" stroke="none" d="M558.5,98.5h178a5,5,0,0,1,5,5v8a5,5,0,0,1,-5,5h-178a5,5,0,0,1,-5,-5v-8a5,5,0,0,1,5,-5z"></path><g id="node_text42" fill="black"><text id="kity_text_371" text-rendering="inherit" font-size="12" dy=".8em" y="99.70000004768372" x="558.5">$ sudo apt-get install goaccess</text></g></g><g id="minder_node43"><g id="node_expander42" style="cursor: pointer;"><path id="kity_path_394" fill="white" stroke="gray" d="M1114.5,206.5A6,6,0,1,1,1102.5,206.5A6,6,0,1,1,1114.5,206.5"></path><path id="kity_path_395" fill="none" stroke="gray" d="M1104,206.5L1113,206.5"></path></g><path id="node_outline43" fill="rgb(239, 238, 246)" stroke="rgb(123, 115, 191)" d="M838.5,193.5h260a3,3,0,0,1,3,3v20a3,3,0,0,1,-3,3h-260a3,3,0,0,1,-3,-3v-20a3,3,0,0,1,3,-3z" stroke-width="1"></path><g id="node_text43" fill="black"><text id="kity_text_391" text-rendering="inherit" font-size="14" dy=".8em" y="197.40000009536743" x="855.5"> Build from GitHub (Development)</text></g></g><g id="minder_node44"><g id="node_expander43" style="cursor: pointer;" display="none"><path id="kity_path_427" fill="white" stroke="gray" d="M831.5,141.5A6,6,0,1,1,819.5,141.5A6,6,0,1,1,831.5,141.5"></path><path id="kity_path_428" fill="none" stroke="gray"></path></g><path id="node_outline44" fill="none" stroke="none" d="M522.5,132.5h292a5,5,0,0,1,5,5v8a5,5,0,0,1,-5,5h-292a5,5,0,0,1,-5,-5v-8a5,5,0,0,1,5,-5z"></path><g id="node_text44" fill="black"><text id="kity_text_409" text-rendering="inherit" font-size="12" dy=".8em" y="133.70000004768372" x="522.5">$ git clone https://github.com/allinurl/goaccess.git</text></g></g><g id="minder_node45"><g id="node_expander44" style="cursor: pointer;" display="none"><path id="kity_path_430" fill="white" stroke="gray" d="M831.5,167.5A6,6,0,1,1,819.5,167.5A6,6,0,1,1,831.5,167.5"></path><path id="kity_path_431" fill="none" stroke="gray"></path></g><path id="node_outline45" fill="none" stroke="none" d="M734.5,158.5h80a5,5,0,0,1,5,5v8a5,5,0,0,1,-5,5h-80a5,5,0,0,1,-5,-5v-8a5,5,0,0,1,5,-5z"></path><g id="node_text45" fill="black"><text id="kity_text_411" text-rendering="inherit" font-size="12" dy=".8em" y="159.70000004768372" x="734.5">$ cd goaccess</text></g></g><g id="minder_node46"><g id="node_expander45" style="cursor: pointer;" display="none"><path id="kity_path_433" fill="white" stroke="gray" d="M831.5,193.5A6,6,0,1,1,819.5,193.5A6,6,0,1,1,831.5,193.5"></path><path id="kity_path_434" fill="none" stroke="gray"></path></g><path id="node_outline46" fill="none" stroke="none" d="M725.5,184.5h89a5,5,0,0,1,5,5v8a5,5,0,0,1,-5,5h-89a5,5,0,0,1,-5,-5v-8a5,5,0,0,1,5,-5z"></path><g id="node_text46" fill="black"><text id="kity_text_413" text-rendering="inherit" font-size="12" dy=".8em" y="185.70000004768372" x="725.5">$ autoreconf -fi</text></g></g><g id="minder_node47"><g id="node_expander46" style="cursor: pointer;" display="none"><path id="kity_path_436" fill="white" stroke="gray" d="M831.5,219.5A6,6,0,1,1,819.5,219.5A6,6,0,1,1,831.5,219.5"></path><path id="kity_path_437" fill="none" stroke="gray"></path></g><path id="node_outline47" fill="none" stroke="none" d="M569.5,210.5h245a5,5,0,0,1,5,5v8a5,5,0,0,1,-5,5h-245a5,5,0,0,1,-5,-5v-8a5,5,0,0,1,5,-5z"></path><g id="node_text47" fill="black"><text id="kity_text_415" text-rendering="inherit" font-size="12" dy=".8em" y="211.70000004768372" x="569.5">$ ./configure --enable-geoip --enable-utf8</text></g></g><g id="minder_node48"><g id="node_expander47" style="cursor: pointer;" display="none"><path id="kity_path_439" fill="white" stroke="gray" d="M831.5,245.5A6,6,0,1,1,819.5,245.5A6,6,0,1,1,831.5,245.5"></path><path id="kity_path_440" fill="none" stroke="gray"></path></g><path id="node_outline48" fill="none" stroke="none" d="M772.5,236.5h42a5,5,0,0,1,5,5v8a5,5,0,0,1,-5,5h-42a5,5,0,0,1,-5,-5v-8a5,5,0,0,1,5,-5z"></path><g id="node_text48" fill="black"><text id="kity_text_417" text-rendering="inherit" font-size="12" dy=".8em" y="237.70000004768372" x="772.5">$ make</text></g></g><g id="minder_node49"><g id="node_expander48" style="cursor: pointer;" display="none"><path id="kity_path_442" fill="white" stroke="gray" d="M831.5,271.5A6,6,0,1,1,819.5,271.5A6,6,0,1,1,831.5,271.5"></path><path id="kity_path_443" fill="none" stroke="gray"></path></g><path id="node_outline49" fill="none" stroke="none" d="M733.5,262.5h81a5,5,0,0,1,5,5v8a5,5,0,0,1,-5,5h-81a5,5,0,0,1,-5,-5v-8a5,5,0,0,1,5,-5z"></path><g id="node_text49" fill="black"><text id="kity_text_419" text-rendering="inherit" font-size="12" dy=".8em" y="263.7000000476837" x="733.5"># make install</text></g></g><g id="minder_node50"><g id="node_expander49" style="cursor: pointer;"><path id="kity_path_450" fill="white" stroke="gray" d="M1114.5,474.5A6,6,0,1,1,1102.5,474.5A6,6,0,1,1,1114.5,474.5"></path><path id="kity_path_451" fill="none" stroke="gray" d="M1104,474.5L1113,474.5"></path></g><path id="node_outline50" fill="rgb(239, 238, 246)" stroke="rgb(123, 115, 191)" d="M1032.5,461.5h66a3,3,0,0,1,3,3v20a3,3,0,0,1,-3,3h-66a3,3,0,0,1,-3,-3v-20a3,3,0,0,1,3,-3z" stroke-width="1"></path><g id="node_text50" fill="black"><text id="kity_text_447" text-rendering="inherit" font-size="14" dy=".8em" y="465.40000009536743" x="1049.5">Start</text></g></g><g id="minder_node51"><g id="node_expander50" display="none" style="cursor: pointer;"><path id="kity_path_523" fill="white" stroke="gray" d="M1025.5,305.5A6,6,0,1,1,1013.5,305.5A6,6,0,1,1,1025.5,305.5"></path><path id="kity_path_524" fill="none" stroke="gray"></path></g><path id="node_outline51" fill="none" stroke="none" d="M670.5,296.5h338a5,5,0,0,1,5,5v8a5,5,0,0,1,-5,5h-338a5,5,0,0,1,-5,-5v-8a5,5,0,0,1,5,-5z"></path><g id="node_text51" fill="black"><text id="kity_text_481" text-rendering="inherit" font-size="12" dy=".8em" y="297.7000000476837" x="670.5">To output to a terminal and generate an interactive report:</text></g></g><g id="minder_node52"><g id="node_expander51" display="none" style="cursor: pointer;"><path id="kity_path_526" fill="white" stroke="gray" d="M1025.5,331.5A6,6,0,1,1,1013.5,331.5A6,6,0,1,1,1025.5,331.5"></path><path id="kity_path_527" fill="none" stroke="gray"></path></g><path id="node_outline52" fill="none" stroke="none" d="M882.5,322.5h126a5,5,0,0,1,5,5v8a5,5,0,0,1,-5,5h-126a5,5,0,0,1,-5,-5v-8a5,5,0,0,1,5,-5z"></path><g id="node_text52" fill="black"><text id="kity_text_483" text-rendering="inherit" font-size="12" dy=".8em" y="323.7000000476837" x="882.5"># goaccess access.log</text></g></g><g id="minder_node53"><g id="node_expander52" display="none" style="cursor: pointer;"><path id="kity_path_529" fill="white" stroke="gray" d="M1025.5,357.5A6,6,0,1,1,1013.5,357.5A6,6,0,1,1,1025.5,357.5"></path><path id="kity_path_530" fill="none" stroke="gray"></path></g><path id="node_outline53" fill="none" stroke="none" d="M840.5,348.5h168a5,5,0,0,1,5,5v8a5,5,0,0,1,-5,5h-168a5,5,0,0,1,-5,-5v-8a5,5,0,0,1,5,-5z"></path><g id="node_text53" fill="black"><text id="kity_text_485" text-rendering="inherit" font-size="12" dy=".8em" y="349.7000000476837" x="840.5">To generate an HTML report:</text></g></g><g id="minder_node54"><g id="node_expander53" display="none" style="cursor: pointer;"><path id="kity_path_532" fill="white" stroke="gray" d="M1025.5,383.5A6,6,0,1,1,1013.5,383.5A6,6,0,1,1,1025.5,383.5"></path><path id="kity_path_533" fill="none" stroke="gray"></path></g><path id="node_outline54" fill="none" stroke="none" d="M786.5,374.5h222a5,5,0,0,1,5,5v8a5,5,0,0,1,-5,5h-222a5,5,0,0,1,-5,-5v-8a5,5,0,0,1,5,-5z"></path><g id="node_text54" fill="black"><text id="kity_text_487" text-rendering="inherit" font-size="12" dy=".8em" y="375.7000000476837" x="786.5"># goaccess access.log -a &gt; report.html</text></g></g><g id="minder_node55"><g id="node_expander54" display="none" style="cursor: pointer;"><path id="kity_path_535" fill="white" stroke="gray" d="M1025.5,409.5A6,6,0,1,1,1013.5,409.5A6,6,0,1,1,1025.5,409.5"></path><path id="kity_path_536" fill="none" stroke="gray"></path></g><path id="node_outline55" fill="none" stroke="none" d="M851.5,400.5h157a5,5,0,0,1,5,5v8a5,5,0,0,1,-5,5h-157a5,5,0,0,1,-5,-5v-8a5,5,0,0,1,5,-5z"></path><g id="node_text55" fill="black"><text id="kity_text_489" text-rendering="inherit" font-size="12" dy=".8em" y="401.7000000476837" x="851.5">To generate a JSON report:</text></g></g><g id="minder_node56"><g id="node_expander55" display="none" style="cursor: pointer;"><path id="kity_path_538" fill="white" stroke="gray" d="M1025.5,435.5A6,6,0,1,1,1013.5,435.5A6,6,0,1,1,1025.5,435.5"></path><path id="kity_path_539" fill="none" stroke="gray"></path></g><path id="node_outline56" fill="none" stroke="none" d="M728.5,426.5h280a5,5,0,0,1,5,5v8a5,5,0,0,1,-5,5h-280a5,5,0,0,1,-5,-5v-8a5,5,0,0,1,5,-5z"></path><g id="node_text56" fill="black"><text id="kity_text_491" text-rendering="inherit" font-size="12" dy=".8em" y="427.7000000476837" x="728.5"># goaccess access.log -a -d -o json &gt; report.json</text></g></g><g id="minder_node57"><g id="node_expander56" display="none" style="cursor: pointer;"><path id="kity_path_541" fill="white" stroke="gray" d="M1025.5,461.5A6,6,0,1,1,1013.5,461.5A6,6,0,1,1,1025.5,461.5"></path><path id="kity_path_542" fill="none" stroke="gray"></path></g><path id="node_outline57" fill="none" stroke="none" d="M877.5,452.5h131a5,5,0,0,1,5,5v8a5,5,0,0,1,-5,5h-131a5,5,0,0,1,-5,-5v-8a5,5,0,0,1,5,-5z"></path><g id="node_text57" fill="black"><text id="kity_text_493" text-rendering="inherit" font-size="12" dy=".8em" y="453.7000000476837" x="877.5">To generate a CSV file:</text></g></g><g id="minder_node58"><g id="node_expander57" display="none" style="cursor: pointer;"><path id="kity_path_544" fill="white" stroke="gray" d="M1025.5,487.5A6,6,0,1,1,1013.5,487.5A6,6,0,1,1,1025.5,487.5"></path><path id="kity_path_545" fill="none" stroke="gray"></path></g><path id="node_outline58" fill="none" stroke="none" d="M661.5,478.5h347a5,5,0,0,1,5,5v8a5,5,0,0,1,-5,5h-347a5,5,0,0,1,-5,-5v-8a5,5,0,0,1,5,-5z"></path><g id="node_text58" fill="black"><text id="kity_text_495" text-rendering="inherit" font-size="12" dy=".8em" y="479.7000000476837" x="661.5"># goaccess access.log --no-csv-summary -o csv &gt; report.csv</text></g></g><g id="minder_node59"><g id="node_expander58" display="none" style="cursor: pointer;"><path id="kity_path_547" fill="white" stroke="gray" d="M1025.5,513.5A6,6,0,1,1,1013.5,513.5A6,6,0,1,1,1025.5,513.5"></path><path id="kity_path_548" fill="none" stroke="gray"></path></g><path id="node_outline59" fill="none" stroke="none" d="M98.5,504.5h910a5,5,0,0,1,5,5v8a5,5,0,0,1,-5,5h-910a5,5,0,0,1,-5,-5v-8a5,5,0,0,1,5,-5z"></path><g id="node_text59" fill="black"><text id="kity_text_497" text-rendering="inherit" font-size="12" dy=".8em" y="505.7000000476837" x="98.5">GoAccess also allows great flexibility for real-time filtering and parsing. For instance, to quickly diagnose issues by monitoring logs since goaccess was started:</text></g></g><g id="minder_node60"><g id="node_expander59" display="none" style="cursor: pointer;"><path id="kity_path_550" fill="white" stroke="gray" d="M1025.5,539.5A6,6,0,1,1,1013.5,539.5A6,6,0,1,1,1025.5,539.5"></path><path id="kity_path_551" fill="none" stroke="gray"></path></g><path id="node_outline60" fill="none" stroke="none" d="M833.5,530.5h175a5,5,0,0,1,5,5v8a5,5,0,0,1,-5,5h-175a5,5,0,0,1,-5,-5v-8a5,5,0,0,1,5,-5z"></path><g id="node_text60" fill="black"><text id="kity_text_499" text-rendering="inherit" font-size="12" dy=".8em" y="531.7000000476837" x="833.5"># tail -f access.log | goaccess -</text></g></g><g id="minder_node61"><g id="node_expander60" display="none" style="cursor: pointer;"><path id="kity_path_553" fill="white" stroke="gray" d="M1025.5,565.5A6,6,0,1,1,1013.5,565.5A6,6,0,1,1,1025.5,565.5"></path><path id="kity_path_554" fill="none" stroke="gray"></path></g><path id="node_outline61" fill="none" stroke="none" d="M25.5,556.5h983a5,5,0,0,1,5,5v8a5,5,0,0,1,-5,5h-983a5,5,0,0,1,-5,-5v-8a5,5,0,0,1,5,-5z"></path><g id="node_text61" fill="black"><text id="kity_text_501" text-rendering="inherit" font-size="12" dy=".8em" y="557.7000000476837" x="25.5">And even better, to filter while maintaining opened a pipe to preserve real-time analysis, we can make use of tail -f and a matching pattern tool such as grep, awk, sed, etc:</text></g></g><g id="minder_node62"><g id="node_expander61" display="none" style="cursor: pointer;"><path id="kity_path_556" fill="white" stroke="gray" d="M1025.5,591.5A6,6,0,1,1,1013.5,591.5A6,6,0,1,1,1025.5,591.5"></path><path id="kity_path_557" fill="none" stroke="gray"></path></g><path id="node_outline62" fill="none" stroke="none" d="M497.5,582.5h511a5,5,0,0,1,5,5v8a5,5,0,0,1,-5,5h-511a5,5,0,0,1,-5,-5v-8a5,5,0,0,1,5,-5z"></path><g id="node_text62" fill="black"><text id="kity_text_503" text-rendering="inherit" font-size="12" dy=".8em" y="583.7000000476837" x="497.5"># tail -f access.log | grep -i --line-buffered 'firefox' | goaccess --log-format=COMBINED -</text></g></g><g id="minder_node63"><g id="node_expander62" display="none" style="cursor: pointer;"><path id="kity_path_559" fill="white" stroke="gray" d="M1025.5,617.5A6,6,0,1,1,1013.5,617.5A6,6,0,1,1,1025.5,617.5"></path><path id="kity_path_560" fill="none" stroke="gray"></path></g><path id="node_outline63" fill="none" stroke="none" d="M448.5,608.5h560a5,5,0,0,1,5,5v8a5,5,0,0,1,-5,5h-560a5,5,0,0,1,-5,-5v-8a5,5,0,0,1,5,-5z"></path><g id="node_text63" fill="black"><text id="kity_text_505" text-rendering="inherit" font-size="12" dy=".8em" y="609.7000000476837" x="448.5">or to parse from the beginning of the file while maintaining the pipe opened and applying a filter</text></g></g><g id="minder_node64"><g id="node_expander63" display="none" style="cursor: pointer;"><path id="kity_path_562" fill="white" stroke="gray" d="M1025.5,643.5A6,6,0,1,1,1013.5,643.5A6,6,0,1,1,1025.5,643.5"></path><path id="kity_path_563" fill="none" stroke="gray"></path></g><path id="node_outline64" fill="none" stroke="none" d="M431.5,634.5h577a5,5,0,0,1,5,5v8a5,5,0,0,1,-5,5h-577a5,5,0,0,1,-5,-5v-8a5,5,0,0,1,5,-5z"></path><g id="node_text64" fill="black"><text id="kity_text_507" text-rendering="inherit" font-size="12" dy=".8em" y="635.7000000476837" x="431.5"># tail -f -n +0 access.log | grep -i --line-buffered 'firefox' | goaccess -o report.html --real-time-html -</text></g></g></g></g></svg>